<?xml version="1.0" standalone="no"?><!DOCTYPE svg PUBLIC "-//W3C//DTD SVG 1.1//EN" "http://www.w3.org/Graphics/SVG/1.1/DTD/svg11.dtd"><svg t="1660498201428" class="icon" viewBox="0 0 1024 1024" version="1.1" xmlns="http://www.w3.org/2000/svg" p-id="4331" xmlns:xlink="http://www.w3.org/1999/xlink" width="200" height="200"><defs><style type="text/css">@font-face { font-family: feedback-iconfont; src: url("//at.alicdn.com/t/font_1031158_u69w8yhxdu.woff2?t=1630033759944") format("woff2"), url("//at.alicdn.com/t/font_1031158_u69w8yhxdu.woff?t=1630033759944") format("woff"), url("//at.alicdn.com/t/font_1031158_u69w8yhxdu.ttf?t=1630033759944") format("truetype"); }
</style></defs><path d="M371.2 454.4m-51.2 0a0.8 0.8 0 1 0 102.4 0 0.8 0.8 0 1 0-102.4 0Z" p-id="4332"></path><path d="M512 454.4m-51.2 0a0.8 0.8 0 1 0 102.4 0 0.8 0.8 0 1 0-102.4 0Z" p-id="4333"></path><path d="M652.8 454.4m-51.2 0a0.8 0.8 0 1 0 102.4 0 0.8 0.8 0 1 0-102.4 0Z" p-id="4334"></path><path d="M377.6 896c-6.4 0-6.4 0-12.8 0-12.8-6.4-19.2-19.2-19.2-32l0-128C211.2 684.8 128 569.6 128 448c0-179.2 172.8-320 384-320s384 140.8 384 320c0 172.8-166.4 313.6-371.2 320l-128 121.6C390.4 896 384 896 377.6 896zM512 192C332.8 192 192 307.2 192 448c0 102.4 76.8 192 192 236.8 12.8 6.4 19.2 19.2 19.2 32l0 76.8 83.2-76.8C492.8 704 505.6 704 512 704c179.2 0 320-115.2 320-256S691.2 192 512 192z" p-id="4335"></path></svg>