<?xml version="1.0" standalone="no"?><!DOCTYPE svg PUBLIC "-//W3C//DTD SVG 1.1//EN" "http://www.w3.org/Graphics/SVG/1.1/DTD/svg11.dtd"><svg t="1660533704881" class="icon" viewBox="0 0 1024 1024" version="1.1" xmlns="http://www.w3.org/2000/svg" p-id="4201" xmlns:xlink="http://www.w3.org/1999/xlink" width="200" height="200"><defs><style type="text/css">@font-face { font-family: feedback-iconfont; src: url("//at.alicdn.com/t/font_1031158_u69w8yhxdu.woff2?t=1630033759944") format("woff2"), url("//at.alicdn.com/t/font_1031158_u69w8yhxdu.woff?t=1630033759944") format("woff"), url("//at.alicdn.com/t/font_1031158_u69w8yhxdu.ttf?t=1630033759944") format("truetype"); }
</style></defs><path d="M832 160 192 160c-38.4 0-64 32-64 64l0 448c0 38.4 32 64 64 64l256 0 0 64L352 800C332.8 800 320 812.8 320 832c0 19.2 12.8 32 32 32l320 0c19.2 0 32-12.8 32-32 0-19.2-12.8-32-32-32L576 800l0-64 256 0c38.4 0 64-32 64-64l0-448C896 192 864 160 832 160zM832 672l-640 0 0-448 640 0 0 0L832 672z" p-id="4202"></path></svg>