<?xml version="1.0" standalone="no"?><!DOCTYPE svg PUBLIC "-//W3C//DTD SVG 1.1//EN" "http://www.w3.org/Graphics/SVG/1.1/DTD/svg11.dtd"><svg t="1660533435351" class="icon" viewBox="0 0 1024 1024" version="1.1" xmlns="http://www.w3.org/2000/svg" p-id="2502" xmlns:xlink="http://www.w3.org/1999/xlink" width="200" height="200"><defs><style type="text/css">@font-face { font-family: feedback-iconfont; src: url("//at.alicdn.com/t/font_1031158_u69w8yhxdu.woff2?t=1630033759944") format("woff2"), url("//at.alicdn.com/t/font_1031158_u69w8yhxdu.woff?t=1630033759944") format("woff"), url("//at.alicdn.com/t/font_1031158_u69w8yhxdu.ttf?t=1630033759944") format("truetype"); }
</style></defs><path d="M376.967 345.239h56.905v258.789h-56.905zM540.793 511.24h59.805c16.186 0 29.958-2.356 41.319-7.067 11.354-4.712 20.597-10.93 27.727-18.667 7.125-7.73 12.323-16.61 15.586-26.64 3.262-10.024 4.893-20.235 4.893-30.627 0-10.63-1.631-20.897-4.893-30.808-3.263-9.905-8.461-18.723-15.586-26.459-7.13-7.73-16.372-13.954-27.727-18.666-11.361-4.712-25.134-7.068-41.319-7.068H483.889v258.789h56.904V511.24z m0-121.782h44.219c6.524 0 12.805 0.487 18.848 1.45 6.037 0.969 11.354 2.843 15.948 5.618 4.587 2.781 8.273 6.705 11.055 11.779 2.774 5.075 4.168 11.723 4.168 19.935 0 8.217-1.394 14.86-4.168 19.935-2.781 5.074-6.468 9.004-11.055 11.78-4.594 2.78-9.911 4.655-15.948 5.618-6.043 0.968-12.323 1.45-18.848 1.45h-44.219v-77.565z" fill="" p-id="2503"></path><path d="M864 128.542H159c-17.673 0-32 14.327-32 32v598.979c0 17.673 14.327 32 32 32h321v115.522c0 17.673 14.327 32 32 32 17.673 0 32-14.327 32-32V791.521h320c17.673 0 32-14.327 32-32V160.542c0-17.673-14.327-32-32-32z m-32 598.979H191V192.542h641v534.979z" fill="" p-id="2504"></path></svg>