<?xml version="1.0" standalone="no"?><!DOCTYPE svg PUBLIC "-//W3C//DTD SVG 1.1//EN" "http://www.w3.org/Graphics/SVG/1.1/DTD/svg11.dtd"><svg t="1650023245179" class="icon" viewBox="0 0 1024 1024" version="1.1" xmlns="http://www.w3.org/2000/svg" p-id="3380" xmlns:xlink="http://www.w3.org/1999/xlink" width="200" height="200"><defs><style type="text/css">@font-face { font-family: feedback-iconfont; src: url("//at.alicdn.com/t/font_1031158_u69w8yhxdu.woff2?t=1630033759944") format("woff2"), url("//at.alicdn.com/t/font_1031158_u69w8yhxdu.woff?t=1630033759944") format("woff"), url("//at.alicdn.com/t/font_1031158_u69w8yhxdu.ttf?t=1630033759944") format("truetype"); }
</style></defs><path d="M120 936.256c-10.304 0-20.608-3.904-28.416-11.776-15.744-15.68-15.744-41.152 0-56.896L447.104 512 91.584 156.48c-15.744-15.68-15.744-41.152 0-56.896 15.68-15.744 41.152-15.744 56.896 0l384 384c15.744 15.68 15.744 41.152 0 56.896l-384 384C140.608 932.352 130.304 936.256 120 936.256z" p-id="3381"></path><path d="M520 936.256c-10.304 0-20.608-3.904-28.416-11.776-15.744-15.68-15.744-41.152 0-56.896L847.104 512 491.584 156.48c-15.744-15.68-15.744-41.152 0-56.896 15.68-15.744 41.152-15.744 56.896 0l384 384c15.744 15.68 15.744 41.152 0 56.896l-384 384C540.608 932.352 530.304 936.256 520 936.256z" p-id="3382"></path></svg>