<?xml version="1.0" standalone="no"?><!DOCTYPE svg PUBLIC "-//W3C//DTD SVG 1.1//EN" "http://www.w3.org/Graphics/SVG/1.1/DTD/svg11.dtd"><svg t="1660497858985" class="icon" viewBox="0 0 1098 1024" version="1.1" xmlns="http://www.w3.org/2000/svg" p-id="3426" xmlns:xlink="http://www.w3.org/1999/xlink" width="214.453125" height="200"><defs><style type="text/css">@font-face { font-family: feedback-iconfont; src: url("//at.alicdn.com/t/font_1031158_u69w8yhxdu.woff2?t=1630033759944") format("woff2"), url("//at.alicdn.com/t/font_1031158_u69w8yhxdu.woff?t=1630033759944") format("woff"), url("//at.alicdn.com/t/font_1031158_u69w8yhxdu.ttf?t=1630033759944") format("truetype"); }
</style></defs><path d="M256 256q0-30.281143-21.430857-51.712t-51.712-21.430857-51.712 21.430857-21.430857 51.712 21.430857 51.712 51.712 21.430857 51.712-21.430857 21.430857-51.712zM865.718857 585.142857q0 30.281143-21.138286 51.419429l-280.576 281.161143q-22.308571 21.138286-52.004571 21.138286-30.281143 0-51.419429-21.138286l-408.576-409.161143q-21.723429-21.138286-36.864-57.709714t-15.140571-66.852571l0-237.714286q0-29.696 21.723429-51.419429t51.419429-21.723429l237.714286 0q30.281143 0 66.852571 15.140571t58.294857 36.864l408.576 407.990857q21.138286 22.308571 21.138286 52.004571zM1085.147429 585.142857q0 30.281143-21.138286 51.419429l-280.576 281.161143q-22.308571 21.138286-52.004571 21.138286-20.553143 0-33.718857-7.972571t-30.281143-25.746286l268.580571-268.580571q21.138286-21.138286 21.138286-51.419429 0-29.696-21.138286-52.004571l-408.576-407.990857q-21.723429-21.723429-58.294857-36.864t-66.852571-15.140571l128 0q30.281143 0 66.852571 15.140571t58.294857 36.864l408.576 407.990857q21.138286 22.308571 21.138286 52.004571z" p-id="3427"></path></svg>